<?xml version="1.0" encoding="UTF-8" standalone="no"?>
<!-- Generator: Adobe Illustrator 13.0.0, SVG Export Plug-In . SVG Version: 6.00 Build 14948)  -->

<svg
   xmlns:dc="http://purl.org/dc/elements/1.1/"
   xmlns:cc="http://creativecommons.org/ns#"
   xmlns:rdf="http://www.w3.org/1999/02/22-rdf-syntax-ns#"
   xmlns:svg="http://www.w3.org/2000/svg"
   xmlns="http://www.w3.org/2000/svg"
   xmlns:xlink="http://www.w3.org/1999/xlink"
   xmlns:sodipodi="http://sodipodi.sourceforge.net/DTD/sodipodi-0.dtd"
   xmlns:inkscape="http://www.inkscape.org/namespaces/inkscape"
   version="1.1"
   x="0px"
   y="0px"
   width="441.283px"
   height="440.907px"
   viewBox="0 0 441.283 440.907"
   enable-background="new 0 0 441.283 440.907"
   xml:space="preserve"
   id="svg2"
   inkscape:version="0.48.0 r9654"
   sodipodi:docname="icon.svg"
   inkscape:export-filename="D:\WebSMSsend_google\webSMSsend\WebSMSsend\src\webSMSsend\icon.png"
   inkscape:export-xdpi="6.5300002"
   inkscape:export-ydpi="6.5300002"><metadata
     id="metadata32"><rdf:RDF><cc:Work
         rdf:about=""><dc:format>image/svg+xml</dc:format><dc:type
           rdf:resource="http://purl.org/dc/dcmitype/StillImage" /></cc:Work></rdf:RDF></metadata><defs
     id="defs30">
	
<linearGradient
   inkscape:collect="always"
   xlink:href="#SVGID_1_"
   id="linearGradient3020"
   gradientUnits="userSpaceOnUse"
   x1="220.64059"
   y1="-0.00048828131"
   x2="220.64059"
   y2="440.9072" />
		
	</defs><sodipodi:namedview
     pagecolor="#ffffff"
     bordercolor="#666666"
     borderopacity="1"
     objecttolerance="10"
     gridtolerance="10"
     guidetolerance="10"
     inkscape:pageopacity="0"
     inkscape:pageshadow="2"
     inkscape:window-width="1440"
     inkscape:window-height="840"
     id="namedview28"
     showgrid="false"
     inkscape:zoom="1.1839231"
     inkscape:cx="374.93166"
     inkscape:cy="248.91728"
     inkscape:window-x="-8"
     inkscape:window-y="-8"
     inkscape:window-maximized="1"
     inkscape:current-layer="svg2" /><g
     id="background"><linearGradient
       id="SVGID_1_"
       gradientUnits="userSpaceOnUse"
       x1="220.64059"
       y1="-0.00048828131"
       x2="220.64059"
       y2="440.9072"><stop
         offset="0"
         style="stop-color:#1F2E57"
         id="stop13" /><stop
         offset="1"
         style="stop-color:#36609A"
         id="stop15" /></linearGradient><path
       clip-rule="evenodd"
       d="m 29.995,0 c 126.318,0 252.637,0 378.954,0 11.201,3.192 24.369,12.191 28.996,24.998 3.988,11.038 2,32.442 2,47.993 0,82.064 0,166.14 0,249.97 0,31.014 4.881,75.957 -4,94.988 -2.961,6.344 -11.799,14.285 -16.998,16.998 -17.65,9.211 -66.489,4.998 -96.987,4.998 -84.404,0 -166.912,0 -252.969,0 -18.484,0 -34.811,1.006 -45.994,-4 -12.586,-5.631 -18.504,-14.301 -22.998,-26.996 0,-126.316 0,-252.635 0,-378.954 C 4.935,14.933 14.933,4.935 29.995,0 z"
       id="path17"
       inkscape:connector-curvature="0"
       style="fill:url(#SVGID_1_);fill-rule:evenodd"
       sodipodi:nodetypes="ccsssccsscccc" /></g><g
     id="envelope"><path
       sodipodi:nodetypes="ccccc"
       id="path3713"
       d="M 63.453174,173.09926 102.68642,352.45127 379.18744,285.19426 336.21769,109.57875 63.453174,173.09926 z"
       style="fill:#ffffff;fill-opacity:1;stroke:#000000;stroke-width:1px;stroke-linecap:butt;stroke-linejoin:miter;stroke-opacity:1"
       inkscape:connector-curvature="0" /><path
       stroke-miterlimit="4"
       id="path3868"
       d="M 67.515654,178.69214 231.14091,251.57874 334.41258,111.71527 M 67.323784,175.68065 335.30183,110.91042 374.16945,282.38007 106.19143,347.15031 67.323784,175.68065 z"
       style="fill:none;stroke:#000000;stroke-width:20.57798004;stroke-miterlimit:4"
       inkscape:connector-curvature="0" /></g><g
     id="GMX_logo"
     transform="matrix(0.95567441,0.23325852,-0.23325852,0.95567441,99.304594,-48.131654)"
     style="fill:#ffffff"><path
       inkscape:connector-curvature="0"
       style="fill:#ffffff"
       d="m 196.42383,401.4664 4.72912,19.21295 14.72583,-3.59115 -0.86799,2.53128 c -1.65721,4.62588 -4.64424,7.25628 -9.91829,8.35693 -9.30641,1.94486 -17.93057,-3.56039 -20.7287,-15.4967 -2.49689,-10.71079 2.75905,-19.64734 11.58289,-21.65989 3.57132,-0.82513 6.33552,-0.38522 10.52986,1.70005 l 3.07734,1.52276 24.20377,-16.38717 -2.42709,-2.09882 c -11.21647,-9.79053 -26.38208,-13.09735 -43.51653,-8.50128 -27.5425,7.3663 -40.50412,30.42944 -32.56151,54.93609 7.65074,23.51075 29.66094,34.9372 55.29085,28.13019 11.1445,-2.99612 18.78551,-7.92145 24.57172,-15.27084 1.70064,-2.17758 3.13826,-4.47666 4.31317,-6.89728 l -3.88223,-36.0278 -39.12221,9.54068 0,0 z"
       id="_146426856" /><path
       inkscape:connector-curvature="0"
       style="fill:#ffffff"
       d="m 345.62299,398.80859 -24.18924,-61.9266 -33.31971,8.12567 -1.70867,41.52023 -0.0882,0.0215 -21.2363,-36.11023 -33.09997,8.07205 3.56511,33.41449 5.18702,-1.26495 1.13111,4.5953 c 3.07016,12.47312 2.06346,23.52811 -2.43599,32.69764 l 1.02751,12.69281 29.5834,-7.21448 -6.55596,-44.05118 0.0882,-0.0215 23.9722,40.22141 17.14334,-4.18073 3.41507,-47.27142 0.0882,-0.0215 13.89344,43.004 17.13284,-4.224 6.40707,-18.07807 0,0 -4.2e-4,-4.6e-4 z"
       id="_145350192" /><polygon
       style="fill:#ffffff"
       points="395.603,403.275 428.789,395.182 389.823,359.545 389.823,359.545 406.185,316.028 372.513,324.24 368.394,343.476 355.632,328.542 322.005,336.743 356.779,367.464 345.623,398.809 351.479,413.896 372.359,408.804 378.467,384.397 "
       id="_146425176" /></g><g
     id="o2_logo"
     transform="matrix(0.94612352,0.22675174,-0.22675174,0.94612352,17.572714,-14.990786)"
     style="fill:#ffffff"><g
       id="g1988"
       style="fill:#ffffff"><path
         inkscape:connector-curvature="0"
         style="fill:#ffffff;fill-rule:evenodd"
         d="M 19.955221,77.254509 C 27.706684,108.20387 56.598846,128.22356 89.232635,120.05022 121.69063,111.92091 137.73584,80.64637 129.98437,49.69701 121.75602,16.843544 93.75087,-1.37473 60.882767,6.857294 27.83886,15.13335 11.726874,44.401039 19.955229,77.254494 M 41.164273,71.942559 C 36.014485,51.380936 43.533276,28.325074 64.918076,22.969115 86.127099,17.657181 103.62556,34.447312 108.77535,55.008935 113.60672,74.299203 108.54556,98.093766 85.198067,103.94129 61.674778,109.83285 45.99564,91.232805 41.164269,71.942544"
         id="path26" /><path
         inkscape:connector-curvature="0"
         style="fill:#ffffff;fill-rule:nonzero"
         d="m 179.28471,120.00129 -1.88999,-7.5462 -19.53925,4.89373 c 5.89781,-9.6399 13.75613,-21.520436 11.2139,-31.67088 -2.35369,-9.397568 -9.39226,-12.516182 -18.50278,-10.234398 -4.86284,1.217934 -9.56253,3.708771 -13.34856,6.98877 l 2.75437,7.765556 c 2.61871,-2.844452 6.03872,-5.596916 10.08134,-6.609413 3.89612,-0.975807 8.33733,0.100418 9.43639,4.488686 2.19888,8.779488 -10.65801,26.432279 -14.02855,31.868409 l 2.00958,8.02369 31.81357,-7.9679"
         id="path28" /></g></g></svg>