<?xml version="1.0" encoding="utf-8"?>
<!-- Generator: Adobe Illustrator 13.0.0, SVG Export Plug-In . SVG Version: 6.00 Build 14948)  -->
<!DOCTYPE svg PUBLIC "-//W3C//DTD SVG 1.1//EN" "http://www.w3.org/Graphics/SVG/1.1/DTD/svg11.dtd">
<svg version="1.1" xmlns="http://www.w3.org/2000/svg" xmlns:xlink="http://www.w3.org/1999/xlink" x="0px" y="0px"
	 width="441.283px" height="440.907px" viewBox="0 0 441.283 440.907" enable-background="new 0 0 441.283 440.907"
	 xml:space="preserve">
<g id="Ebene_3">
	<rect x="16.999" y="18" fill-rule="evenodd" clip-rule="evenodd" fill="#FFFFFF" width="405.001" height="404"/>
</g>
<g id="Ebene_1">
	<g>
		<g>
			<linearGradient id="SVGID_1_" gradientUnits="userSpaceOnUse" x1="220.6406" y1="-4.882813e-004" x2="220.6406" y2="440.9072">
				<stop  offset="0" style="stop-color:#1F2E57"/>
				<stop  offset="1" style="stop-color:#36609A"/>
			</linearGradient>
			<path fill-rule="evenodd" clip-rule="evenodd" fill="url(#SVGID_1_)" d="M29.995,0c126.318,0,252.637,0,378.954,0
				c11.201,3.192,24.369,12.191,28.996,24.998c3.988,11.038,2,32.442,2,47.993c0,82.064,0,166.14,0,249.97
				c0,31.014,4.881,75.957-4,94.988c-2.961,6.344-11.799,14.285-16.998,16.998c-17.65,9.211-66.489,4.998-96.987,4.998
				c-84.404,0-166.912,0-252.969,0c-18.484,0-34.811,1.006-45.994-4c-12.586-5.631-18.504-14.301-22.998-26.996
				c0-126.316,0-252.635,0-378.954C4.935,14.933,14.933,4.935,29.995,0z M98.987,46.994c-48.486,25.719-78.219,75.814-77.99,144.983
				c0.154,46.869,16.848,82.254,40.994,108.986c23.205,25.688,58.482,46.9,100.988,49.994
				c99.164,7.217,163.809-61.074,170.979-145.982c4.227-50.043-13.201-96.418-33.996-121.985
				C272.044,48.664,224.173,24,158.979,29.996C135.898,32.119,115.617,38.173,98.987,46.994z M414.947,321.961
				c3.787-15.939-1.842-33.979-12.998-41.996c-16.719-12.014-53.53-7.625-69.991,3c1.203,6.797,2.053,13.945,2,21.998
				c18.701-15.133,65.468-16.238,51.993,19.998c-4.131,11.111-16.389,24.584-25.996,34.994
				c-10.933,11.846-24.419,20.555-30.997,29.996c0,7.334,0,14.666,0,21.998c30.33,0,60.659,0,90.989,0c0-7.332,0-14.664,0-21.998
				c-18.33,0-36.662,0-54.992,0C381.648,371.297,407.939,351.457,414.947,321.961z"/>
			<linearGradient id="SVGID_2_" gradientUnits="userSpaceOnUse" x1="178.0283" y1="74.9736" x2="178.0283" y2="304.6113">
				<stop  offset="0" style="stop-color:#1F2E57"/>
				<stop  offset="1" style="stop-color:#36609A"/>
			</linearGradient>
			<path fill-rule="evenodd" clip-rule="evenodd" fill="url(#SVGID_2_)" d="M176.978,74.991
				c38.287-0.729,65.742,22.167,79.99,46.994c5.529,9.636,15.441,33.982,16.998,53.994c3.281,42.168-11.084,84.064-33.996,105.986
				c-31.096,29.754-89.447,29.602-120.984,3c-35.484-29.93-48.316-97.484-26.997-148.982c7.038-17,16.366-30.366,25.997-38.995
				C130.478,85.792,149.474,75.513,176.978,74.991z"/>
			<g>
			</g>
		</g>
	</g>
</g>
</svg>
